<svg width="28" height="28" viewBox="0 0 28 28" fill="none" xmlns="http://www.w3.org/2000/svg">
<path d="M17 10.25H11C10.8011 10.25 10.6103 10.329 10.4697 10.4697C10.329 10.6103 10.25 10.8011 10.25 11V17C10.25 17.1989 10.329 17.3897 10.4697 17.5303C10.6103 17.671 10.8011 17.75 11 17.75H17C17.1989 17.75 17.3897 17.671 17.5303 17.5303C17.671 17.3897 17.75 17.1989 17.75 17V11C17.75 10.8011 17.671 10.6103 17.5303 10.4697C17.3897 10.329 17.1989 10.25 17 10.25ZM16.25 16.25H11.75V11.75H16.25V16.25ZM27 16.25H24.75V11.75H27C27.1989 11.75 27.3897 11.671 27.5303 11.5303C27.671 11.3897 27.75 11.1989 27.75 11C27.75 10.8011 27.671 10.6103 27.5303 10.4697C27.3897 10.329 27.1989 10.25 27 10.25H24.75V5C24.75 4.53587 24.5656 4.09075 24.2374 3.76256C23.9092 3.43437 23.4641 3.25 23 3.25H17.75V1C17.75 0.801088 17.671 0.610322 17.5303 0.46967C17.3897 0.329018 17.1989 0.25 17 0.25C16.8011 0.25 16.6103 0.329018 16.4697 0.46967C16.329 0.610322 16.25 0.801088 16.25 1V3.25H11.75V1C11.75 0.801088 11.671 0.610322 11.5303 0.46967C11.3897 0.329018 11.1989 0.25 11 0.25C10.8011 0.25 10.6103 0.329018 10.4697 0.46967C10.329 0.610322 10.25 0.801088 10.25 1V3.25H5C4.53587 3.25 4.09075 3.43437 3.76256 3.76256C3.43437 4.09075 3.25 4.53587 3.25 5V10.25H1C0.801088 10.25 0.610322 10.329 0.46967 10.4697C0.329018 10.6103 0.25 10.8011 0.25 11C0.25 11.1989 0.329018 11.3897 0.46967 11.5303C0.610322 11.671 0.801088 11.75 1 11.75H3.25V16.25H1C0.801088 16.25 0.610322 16.329 0.46967 16.4697C0.329018 16.6103 0.25 16.8011 0.25 17C0.25 17.1989 0.329018 17.3897 0.46967 17.5303C0.610322 17.671 0.801088 17.75 1 17.75H3.25V23C3.25 23.4641 3.43437 23.9092 3.76256 24.2374C4.09075 24.5656 4.53587 24.75 5 24.75H10.25V27C10.25 27.1989 10.329 27.3897 10.4697 27.5303C10.6103 27.671 10.8011 27.75 11 27.75C11.1989 27.75 11.3897 27.671 11.5303 27.5303C11.671 27.3897 11.75 27.1989 11.75 27V24.75H16.25V27C16.25 27.1989 16.329 27.3897 16.4697 27.5303C16.6103 27.671 16.8011 27.75 17 27.75C17.1989 27.75 17.3897 27.671 17.5303 27.5303C17.671 27.3897 17.75 27.1989 17.75 27V24.75H23C23.4641 24.75 23.9092 24.5656 24.2374 24.2374C24.5656 23.9092 24.75 23.4641 24.75 23V17.75H27C27.1989 17.75 27.3897 17.671 27.5303 17.5303C27.671 17.3897 27.75 17.1989 27.75 17C27.75 16.8011 27.671 16.6103 27.5303 16.4697C27.3897 16.329 27.1989 16.25 27 16.25ZM23.25 23C23.25 23.0663 23.2237 23.1299 23.1768 23.1768C23.1299 23.2237 23.0663 23.25 23 23.25H5C4.9337 23.25 4.87011 23.2237 4.82322 23.1768C4.77634 23.1299 4.75 23.0663 4.75 23V5C4.75 4.9337 4.77634 4.87011 4.82322 4.82322C4.87011 4.77634 4.9337 4.75 5 4.75H23C23.0663 4.75 23.1299 4.77634 23.1768 4.82322C23.2237 4.87011 23.25 4.9337 23.25 5V23Z" fill="white"/>
</svg>
