<svg width="22" height="27" viewBox="0 0 22 27" fill="none" xmlns="http://www.w3.org/2000/svg">
<path d="M15.75 17C15.75 17.1989 15.671 17.3897 15.5303 17.5303C15.3897 17.671 15.1989 17.75 15 17.75H7C6.80109 17.75 6.61032 17.671 6.46967 17.5303C6.32902 17.3897 6.25 17.1989 6.25 17C6.25 16.8011 6.32902 16.6103 6.46967 16.4697C6.61032 16.329 6.80109 16.25 7 16.25H15C15.1989 16.25 15.3897 16.329 15.5303 16.4697C15.671 16.6103 15.75 16.8011 15.75 17ZM15 12.25H7C6.80109 12.25 6.61032 12.329 6.46967 12.4697C6.32902 12.6103 6.25 12.8011 6.25 13C6.25 13.1989 6.32902 13.3897 6.46967 13.5303C6.61032 13.671 6.80109 13.75 7 13.75H15C15.1989 13.75 15.3897 13.671 15.5303 13.5303C15.671 13.3897 15.75 13.1989 15.75 13C15.75 12.8011 15.671 12.6103 15.5303 12.4697C15.3897 12.329 15.1989 12.25 15 12.25ZM21.75 4.00002V25C21.75 25.4641 21.5656 25.9093 21.2374 26.2375C20.9092 26.5656 20.4641 26.75 20 26.75H2C1.53587 26.75 1.09075 26.5656 0.762563 26.2375C0.434375 25.9093 0.25 25.4641 0.25 25V4.00002C0.25 3.53589 0.434375 3.09077 0.762563 2.76258C1.09075 2.43439 1.53587 2.25002 2 2.25002H6.64625C7.185 1.62265 7.85297 1.11912 8.60442 0.77392C9.35587 0.42872 10.1731 0.25 11 0.25C11.8269 0.25 12.6441 0.42872 13.3956 0.77392C14.147 1.11912 14.815 1.62265 15.3538 2.25002H20C20.4641 2.25002 20.9092 2.43439 21.2374 2.76258C21.5656 3.09077 21.75 3.53589 21.75 4.00002ZM6.75 6.00002V6.25002H15.25V6.00002C15.25 4.87285 14.8022 3.79184 14.0052 2.99481C13.2082 2.19779 12.1272 1.75002 11 1.75002C9.87283 1.75002 8.79183 2.19779 7.9948 2.99481C7.19777 3.79184 6.75 4.87285 6.75 6.00002ZM20.25 4.00002C20.25 3.93371 20.2237 3.87013 20.1768 3.82324C20.1299 3.77636 20.0663 3.75002 20 3.75002H16.2913C16.5947 4.46131 16.7507 5.22672 16.75 6.00002V7.00002C16.75 7.19893 16.671 7.3897 16.5303 7.53035C16.3897 7.671 16.1989 7.75002 16 7.75002H6C5.80109 7.75002 5.61032 7.671 5.46967 7.53035C5.32902 7.3897 5.25 7.19893 5.25 7.00002V6.00002C5.24929 5.22672 5.40535 4.46131 5.70875 3.75002H2C1.9337 3.75002 1.87011 3.77636 1.82322 3.82324C1.77634 3.87013 1.75 3.93371 1.75 4.00002V25C1.75 25.0663 1.77634 25.1299 1.82322 25.1768C1.87011 25.2237 1.9337 25.25 2 25.25H20C20.0663 25.25 20.1299 25.2237 20.1768 25.1768C20.2237 25.1299 20.25 25.0663 20.25 25V4.00002Z" fill="white"/>
</svg>
