<svg width="60" height="60" viewBox="0 0 60 60" fill="none" xmlns="http://www.w3.org/2000/svg">
<circle cx="30" cy="30" r="30" fill="white"/>
<path d="M27.1879 14.4587C26.813 14.065 26.2506 13.9151 25.7256 14.0525C25.2007 14.19 24.7945 14.6087 24.6571 15.1336L23.6697 19.0392L19.7954 17.9457C19.2704 17.7957 18.708 17.9457 18.3268 18.3268C17.9457 18.708 17.7957 19.2704 17.9457 19.7954L19.0392 23.6697L15.1336 24.6633C14.6087 24.7945 14.1963 25.207 14.0525 25.7319C13.9088 26.2568 14.065 26.813 14.4587 27.1879L17.3458 30L14.4587 32.812C14.065 33.1869 13.9151 33.7493 14.0525 34.2743C14.19 34.7992 14.6087 35.2054 15.1336 35.3428L19.0392 36.3302L17.9457 40.2045C17.7957 40.7295 17.9457 41.2919 18.3268 41.6731C18.708 42.0542 19.2704 42.2042 19.7954 42.0542L23.6697 40.9607L24.6571 44.8663C24.7883 45.3912 25.2007 45.8036 25.7256 45.9474C26.2506 46.0911 26.8067 45.9349 27.1879 45.5474L30 42.6604L32.812 45.5474C33.1932 45.9349 33.7493 46.0911 34.2743 45.9474C34.7992 45.8036 35.2054 45.3912 35.3428 44.8663L36.3302 40.9607L40.2045 42.0542C40.7295 42.2042 41.2919 42.0542 41.6731 41.6731C42.0542 41.2919 42.2042 40.7295 42.0542 40.2045L40.9607 36.3302L44.8663 35.3428C45.3912 35.2116 45.8036 34.7992 45.9474 34.2743C46.0911 33.7493 45.9349 33.1932 45.5474 32.812L42.6604 30L45.5474 27.1879C45.9349 26.8067 46.0911 26.2506 45.9474 25.7256C45.8036 25.2007 45.3912 24.7945 44.8663 24.6571L40.9607 23.6697L42.0542 19.7954C42.2042 19.2704 42.0542 18.708 41.6731 18.3268C41.2919 17.9457 40.7295 17.7957 40.2045 17.9457L36.3302 19.0392L35.3366 15.1336C35.2054 14.6087 34.7929 14.1963 34.268 14.0525C33.7431 13.9088 33.1869 14.065 32.812 14.4587L30 17.3458L27.1879 14.4587Z" fill="#F16336"/>
</svg>
