<svg width="800" height="800" viewBox="0 0 800 800" fill="none" xmlns="http://www.w3.org/2000/svg">
<g opacity="0.1">
<path d="M400 75C335.721 75 272.886 94.0609 219.44 129.772C165.994 165.484 124.338 216.242 99.7391 275.628C75.1407 335.014 68.7046 400.361 81.2448 463.404C93.785 526.448 124.738 584.358 170.19 629.81C215.642 675.262 273.552 706.215 336.596 718.755C399.639 731.295 464.986 724.859 524.372 700.261C583.758 675.662 634.516 634.006 670.228 580.56C705.939 527.114 725 464.279 725 400C724.909 313.833 690.639 231.22 629.709 170.291C568.78 109.361 486.167 75.091 400 75ZM387.5 225C394.917 225 402.167 227.199 408.334 231.32C414.501 235.44 419.307 241.297 422.145 248.149C424.984 255.002 425.726 262.542 424.279 269.816C422.832 277.09 419.261 283.772 414.016 289.017C408.772 294.261 402.09 297.833 394.816 299.279C387.542 300.726 380.002 299.984 373.149 297.145C366.297 294.307 360.44 289.501 356.32 283.334C352.199 277.167 350 269.917 350 262.5C350 252.554 353.951 243.016 360.983 235.983C368.016 228.951 377.554 225 387.5 225ZM425 575C411.739 575 399.021 569.732 389.645 560.355C380.268 550.979 375 538.261 375 525V400C368.37 400 362.011 397.366 357.322 392.678C352.634 387.989 350 381.63 350 375C350 368.37 352.634 362.011 357.322 357.322C362.011 352.634 368.37 350 375 350C388.261 350 400.979 355.268 410.355 364.645C419.732 374.021 425 386.739 425 400V525C431.63 525 437.989 527.634 442.678 532.322C447.366 537.011 450 543.37 450 550C450 556.63 447.366 562.989 442.678 567.678C437.989 572.366 431.63 575 425 575Z" fill="#F16336"/>
</g>
</svg>
