<svg version="1.2" xmlns="http://www.w3.org/2000/svg" viewBox="0 0 60 60" width="60" height="60">
	<title>leaf</title>
	<style>
		.s0 { fill: #ffffff } 
		.s1 { fill: #f16336 } 
	</style>
	<path fill-rule="evenodd" class="s0" d="m30 60c-16.59 0-30-13.41-30-30 0-16.59 13.41-30 30-30 16.59 0 30 13.41 30 30 0 16.59-13.41 30-30 30z"/>
	<path class="s1" d="m29 18c-4.91 0-9.07 3.22-10.48 7.66 2.1-1.06 4.47-1.66 6.98-1.66h5.5c0.55 0 1 0.45 1 1 0 0.55-0.45 1-1 1h-1-4.5q-1.56 0.01-3.01 0.34c-1.62 0.37-3.13 1.02-4.46 1.92-3.64 2.42-6.03 6.55-6.03 11.24v1c0 0.83 0.67 1.5 1.5 1.5 0.83 0 1.5-0.67 1.5-1.5v-1c0-3.04 1.29-5.78 3.36-7.7 1.24 4.72 5.53 8.2 10.64 8.2h0.06c8.26-0.04 14.94-8.18 14.94-18.21 0-2.66-0.47-5.19-1.32-7.47-0.16-0.43-0.79-0.42-1.01-0.01-1.18 2.2-3.5 3.69-6.17 3.69z"/>
</svg>