<svg width="94" height="75" viewBox="0 0 94 75" fill="none" xmlns="http://www.w3.org/2000/svg">
<path d="M93.2917 6C93.2917 2.68629 90.6054 0 87.2917 0H57.8334C54.5197 0 51.8334 2.68629 51.8334 6V40.0836C51.8334 41.0151 52.0503 41.9337 52.4668 42.7669L66.8 71.4333C67.8164 73.466 69.894 74.75 72.1666 74.75H79.4386C83.8936 74.75 86.7949 70.0662 84.8105 66.0775L76.8979 50.1725C74.9135 46.1838 77.8148 41.5 82.2698 41.5H87.2917C90.6054 41.5 93.2917 38.8137 93.2917 35.5V6Z" fill="white"/>
<path d="M41.4583 6C41.4583 2.68629 38.7721 0 35.4583 0H6C2.68629 0 7.62939e-06 2.68629 7.62939e-06 6V40.0836C7.62939e-06 41.0151 0.216881 41.9337 0.633446 42.7669L14.9667 71.4333C15.983 73.466 18.0606 74.75 20.3332 74.75H27.6052C32.0603 74.75 34.9615 70.0662 32.9772 66.0775L25.0645 50.1725C23.0802 46.1838 25.9814 41.5 30.4365 41.5H35.4583C38.772 41.5 41.4583 38.8137 41.4583 35.5V6Z" fill="white"/>
</svg>
