<svg width="94" height="75" viewBox="0 0 94 75" fill="none" xmlns="http://www.w3.org/2000/svg">
<path d="M0 6C0 2.68629 2.68629 0 6 0H35.4583C38.772 0 41.4583 2.68629 41.4583 6V40.0836C41.4583 41.0151 41.2415 41.9337 40.8249 42.7669L26.4917 71.4333C25.4753 73.466 23.3978 74.75 21.1251 74.75H13.8531C9.39809 74.75 6.49683 70.0662 8.48118 66.0775L16.3938 50.1725C18.3782 46.1838 15.4769 41.5 11.0219 41.5H6C2.6863 41.5 0 38.8137 0 35.5V6Z" fill="white"/>
<path d="M51.8334 6C51.8334 2.68629 54.5197 0 57.8334 0H87.2917C90.6054 0 93.2917 2.68629 93.2917 6V40.0836C93.2917 41.0151 93.0748 41.9337 92.6583 42.7669L78.3251 71.4333C77.3087 73.466 75.2311 74.75 72.9585 74.75H65.6865C61.2315 74.75 58.3302 70.0662 60.3146 66.0775L68.2272 50.1725C70.2115 46.1838 67.3103 41.5 62.8553 41.5H57.8334C54.5197 41.5 51.8334 38.8137 51.8334 35.5V6Z" fill="white"/>
</svg>
