<svg version="1.2" xmlns="http://www.w3.org/2000/svg" viewBox="0 0 60 60" width="60" height="60">
	<title>sheld</title>
	<defs>
		<clipPath clipPathUnits="userSpaceOnUse" id="cp1">
			<path d="m12 12.5h36v36h-36z"/>
		</clipPath>
	</defs>
	<style>
		.s0 { fill: #ffffff } 
		.s1 { fill: #f16336 } 
	</style>
	<path fill-rule="evenodd" class="s0" d="m30 60c-16.59 0-30-13.41-30-30 0-16.59 13.41-30 30-30 16.59 0 30 13.41 30 30 0 16.59-13.41 30-30 30z"/>
	<g id="Clip-Path" clip-path="url(#cp1)">
		<g>
			<path class="s1" d="m30 11.5q0.49 0 0.94 0.2l13.24 5.62c1.55 0.66 2.7 2.18 2.69 4.02-0.03 6.98-2.9 19.74-15.01 25.54-1.18 0.56-2.54 0.56-3.72 0-12.11-5.8-14.98-18.56-15.02-25.54 0-1.84 1.15-3.36 2.7-4.02l13.24-5.62q0.45-0.2 0.94-0.2zm0 4.7v26.58c9.7-4.7 12.31-15.1 12.38-21.34z"/>
		</g>
	</g>
</svg>