<svg width="32" height="32" viewBox="0 0 32 32" fill="none" xmlns="http://www.w3.org/2000/svg">
<rect x="0.5" y="0.5" width="31" height="31" rx="7.5" fill="white" stroke="white"/>
<path d="M17.667 9.33301C20.4282 9.33318 22.6668 11.5718 22.667 14.333V17.667C22.6668 20.4282 20.4282 22.6668 17.667 22.667H14.333C11.5718 22.6668 9.33318 20.4282 9.33301 17.667V14.333C9.33318 11.5718 11.5718 9.33318 14.333 9.33301H17.667ZM16 12.667C14.1591 12.667 12.667 14.1591 12.667 16C12.667 17.8409 14.1591 19.333 16 19.333C17.8409 19.333 19.333 17.8409 19.333 16C19.333 14.1591 17.8409 12.667 16 12.667ZM16 14C17.1046 14 18 14.8954 18 16C18 17.1046 17.1046 18 16 18C14.8954 18 14 17.1046 14 16C14 14.8954 14.8954 14 16 14ZM20 11.333C19.6318 11.333 19.333 11.6318 19.333 12C19.333 12.3682 19.6318 12.667 20 12.667C20.3682 12.667 20.667 12.3682 20.667 12C20.667 11.6318 20.3682 11.333 20 11.333Z" fill="#F16336"/>
</svg>
