<svg width="20" height="20" viewBox="0 0 20 20" fill="none" xmlns="http://www.w3.org/2000/svg">
<path d="M18.4594 12.6439C18.2941 12.8552 18.0653 13.0076 17.8067 13.0788C17.5481 13.15 17.2735 13.1361 17.0234 13.0393L13.1953 11.6807L13.1727 11.6721C12.9812 11.5955 12.8117 11.4727 12.6792 11.3147C12.5467 11.1568 12.4554 10.9685 12.4133 10.7666L11.9281 8.44238C10.6694 8.0135 9.30366 8.01652 8.04687 8.45098L7.58593 10.7572C7.54528 10.9613 7.45432 11.152 7.3213 11.312C7.18829 11.4721 7.01743 11.5964 6.82422 11.6736L6.80156 11.6822L2.97343 13.0393C2.83133 13.0953 2.68007 13.1244 2.52734 13.1252C2.33722 13.1255 2.14953 13.0825 1.97854 12.9994C1.80755 12.9163 1.65778 12.7952 1.54062 12.6455C0.194528 10.9096 0.345309 8.60566 1.90703 7.04316C6.29375 2.65488 13.7039 2.65488 18.093 7.04316C19.6547 8.6041 19.8055 10.908 18.4594 12.6439ZM16.875 15.0002H3.125C2.95924 15.0002 2.80027 15.066 2.68305 15.1833C2.56584 15.3005 2.5 15.4594 2.5 15.6252C2.5 15.791 2.56584 15.9499 2.68305 16.0671C2.80027 16.1843 2.95924 16.2502 3.125 16.2502H16.875C17.0408 16.2502 17.1997 16.1843 17.3169 16.0671C17.4341 15.9499 17.5 15.791 17.5 15.6252C17.5 15.4594 17.4341 15.3005 17.3169 15.1833C17.1997 15.066 17.0408 15.0002 16.875 15.0002Z" fill="#F16336"/>
</svg>
